<svg xmlns="http://www.w3.org/2000/svg" width="508" height="127" viewBox="0 0 508 127">
  <g id="Logo_Carvelo" transform="translate(21852 24255)">
    <rect id="Placeholder" width="508" height="127" transform="translate(-21852 -24255)" fill="none"/>
    <path id="Logo" d="M434.343,80.366q-8.495,0-12.612-3.424t-4.116-11.155V39.807a41.486,41.486,0,0,1,.313-4.626,14.662,14.662,0,0,1,1.773-5.389,11.153,11.153,0,0,1,4.945-4.437q3.486-1.761,9.7-1.772h34.984q6.331,0,9.755,1.772a11.188,11.188,0,0,1,4.881,4.437,14.86,14.86,0,0,1,1.775,5.389,41.63,41.63,0,0,1,.317,4.626V64.141a45.945,45.945,0,0,1-.317,5.073,13.187,13.187,0,0,1-1.836,5.32,11.16,11.16,0,0,1-4.944,4.18q-3.417,1.652-9.628,1.652ZM433.074,39.55V64.395q0,5.071,6.087,5.066h25.348q6.209,0,6.209-5.066V39.55q0-5.065-6.209-5.071H439.157q-6.084,0-6.083,5.071M391.023,80.366V10.144L389.754,0h16.73V80.366Zm-61.386,0q-6.34,0-9.757-1.652a10.78,10.78,0,0,1-4.88-4.18,13.635,13.635,0,0,1-1.774-5.328,44.329,44.329,0,0,1-.318-5.071V39.8a40.2,40.2,0,0,1,.318-4.62A14.622,14.622,0,0,1,315,29.787a11.16,11.16,0,0,1,4.944-4.437q3.485-1.77,9.692-1.772H356.89q8.366,0,13.118,1.581a11.324,11.324,0,0,1,6.718,5.14q1.958,3.544,1.962,9.5V58.563h-22.18q-11.409,0-18.566-.514t-9.571-.631v6.975q-.13,5.071,6.082,5.066h6.467q6.836,0,13.367-.189t11.978-.514q5.448-.309,8.745-.569l5.073,8.243q0,3.93-24.972,3.93ZM328.372,39.55v8.111h34.856V39.55A7.811,7.811,0,0,0,362.653,36c-.377-.675-1.495-1.091-3.355-1.261s-5.031-.257-9.507-.257H334.454q-6.082,0-6.082,5.071M260.081,80.366l-26.11-56.785h17.744l14.574,34.983,3.3,9.123h1.269l3.292-9.123,14.831-34.983h17.239l-2.029,7.728-23.83,49.056Zm-86.063,0V23.581h10.393l4.816,2.535a32.839,32.839,0,0,1,7.1-2.791,38.049,38.049,0,0,1,9.629-1.015q9.25,0,15.024,2.029a66.474,66.474,0,0,1,7.664,3.037l-4.435,11.031a45.673,45.673,0,0,0-5.007-1.965,72.174,72.174,0,0,0-8.174-2.22,48.894,48.894,0,0,0-10.265-1.015h-1.4q-6.085,0-7.924,2.407T189.479,43.6V80.364Zm-21.961,0-4.945-2.54q-5.322.887-12.8,1.715a157.345,157.345,0,0,1-17.107.825h-6.336q-9.634,0-13.946-4.5T92.615,63.5q0-8.236,4.5-12.673T110.869,46.4h6.461q9.5,0,17.112.5t12.544,1.02V39.549a11.563,11.563,0,0,0-.249-2.341,3.038,3.038,0,0,0-1.526-1.971,8.939,8.939,0,0,0-4.306-.758h-6.34q-13.818,0-23.066.447t-12.549.822l-1.4-9.632q0-1.768,9.634-2.158,9.628-.372,32.195-.377h6.336q6.339,0,9.756,1.772a11.194,11.194,0,0,1,4.88,4.437,14.593,14.593,0,0,1,1.773,5.389,39.932,39.932,0,0,1,.32,4.626V80.363Zm-42.65-22.687q-1.333,1.639-1.33,5.2,0,3.544,1.52,5.066a6.179,6.179,0,0,0,4.562,1.517h29.025c1.86,0,2.956-.166,3.3-.509s.5-1.391.5-3.166V56.025H114.159c-2.278,0-3.866.552-4.752,1.653M23.193,80.366q-9,0-14.068-2.532a14.194,14.194,0,0,1-7.1-7.607A34.033,34.033,0,0,1,0,57.678V29.411Q0,17.246,5.449,11.475T23.193,5.71H61.346a71.092,71.092,0,0,1,13.372.949q4.626.952,4.626,1.963L76.806,19.144q-2.158-.381-12.737-.823t-30.735-.444h-6.46q-10.145,0-10.143,9V59.2a9.3,9.3,0,0,0,2.22,6.655q2.218,2.345,7.923,2.341h5.195q21.035,0,32.635-.441T79.1,66.8l5.2,8.364c0,.424-.7,1.058-2.091,1.9s-3.954,1.607-7.669,2.287a95.863,95.863,0,0,1-16.1,1.012Z" transform="translate(-21841 -24232)" fill="#050e13"/>
  </g>
</svg>
